<?xml version="1.0" encoding="UTF-8"?>
<!-- Do not edit this file with editors other than diagrams.net -->
<!--
 SPDX-FileCopyrightText: Copyright 2023-2025 Arm Limited and/or its affiliates <open-source-office@arm.com>
 SPDX-License-Identifier: Apache-2.0
-->
<!DOCTYPE svg PUBLIC "-//W3C//DTD SVG 1.1//EN" "http://www.w3.org/Graphics/SVG/1.1/DTD/svg11.dtd">
<svg xmlns="http://www.w3.org/2000/svg" width="511" xmlns:ev="http://www.w3.org/2001/xml-events" viewBox="0 0 511 565" xmlns:xlink="http://www.w3.org/1999/xlink" height="565"><defs/><g transform="translate(5.5,5.5)" id="page1"><rect width="501" fill="#ffffff" y="0" x="0" height="555"/><g transform="translate(8.795000,8.795200)" id="shape1"><path stroke="#333e48" fill-rule="nonzero" fill="#7d868c" stroke-width="1" d="M.0,.0L482.5,.0L482.5,71.0L.0,71.0L.0,.0z"/><text xml:space="preserve" style="fill:#000000;font-family:Courier New,PingFang SC,Mircrosoft YaHei,Arial;font-size:18.00pt"><tspan y="33.0" x="54.8" style="font-family:Lato,PingFang SC,Mircrosoft YaHei,Arial;font-size:12.00pt">Get memory requirements for constants table decoder</tspan><tspan y="50.0" x="6.3" style="font-size:12.00pt">(mlsdk_decoder_constant_table_decoder_mem_reqs)</tspan></text></g><g transform="translate(8.795000,114.180700)" id="shape2"><path stroke="#333e48" fill-rule="nonzero" fill="#e5eceb" stroke-width="1" d="M.0,.0L482.5,.0L482.5,71.0L.0,71.0L.0,.0z"/><text xml:space="preserve" style="fill:#000000;font-family:Lato,PingFang SC,Mircrosoft YaHei,Arial;font-size:18.00pt"><tspan y="32.5" x="87.3" style="font-size:12.00pt">Allocate memory for constants table decoder </tspan><tspan y="51.5" x="95.8" style="font-size:12.00pt">using its memory requirement information</tspan></text></g><g transform="translate(8.795000,223.566700)" id="shape3"><path stroke="#333e48" fill-rule="nonzero" fill="#7d868c" stroke-width="1" d="M.0,.0L482.5,.0L482.5,71.0L.0,71.0L.0,.0z"/><text xml:space="preserve" style="fill:#000000;font-family:Lato,PingFang SC,Mircrosoft YaHei,Arial;font-size:18.00pt"><tspan y="32.5" x="133.8" style="font-size:12.00pt">Create constants table decoder </tspan><tspan y="51.5" x="132.3" style="font-size:12.00pt">in its allocated memory location</tspan></text></g><g transform="translate(250.067000,79.763700)" id="shape4"><path stroke="#333e48" fill="none" stroke-width="1.3333300352096558" d="M.0,.0L.0,27.5"/><path stroke="#333e48" fill="#333e48" stroke-linecap="round" stroke-width="1" d="M3.5,27.5L.0,34.4L-3.5,27.5L3.5,27.5"/></g><g transform="translate(250.067000,185.149000)" id="shape5"><path stroke="#333e48" fill="none" stroke-width="1.3333300352096558" d="M.0,.0L.0,31.5"/><path stroke="#333e48" fill="#333e48" stroke-linecap="round" stroke-width="1" d="M3.5,31.5L.0,38.4L-3.5,31.5L3.5,31.5"/></g><g transform="translate(250.067000,294.535000)" id="shape6"><path stroke="#333e48" fill="none" stroke-width="1.3333300352096558" d="M.0,.0L.0,32.4"/><path stroke="#333e48" fill="#333e48" stroke-linecap="round" stroke-width="1" d="M3.5,32.4L.0,39.3L-3.5,32.4L3.5,32.4"/></g><g transform="translate(8.796000,333.881700)" id="shape7"><path stroke="#333e48" fill-rule="nonzero" fill="#7d868c" stroke-width="1" d="M.0,.0L482.5,.0L482.5,71.0L.0,71.0L.0,.0z"/><text xml:space="preserve" style="fill:#000000;font-family:Lato,PingFang SC,Mircrosoft YaHei,Arial;font-size:18.00pt"><tspan y="32.5" x="32.3" style="font-size:12.00pt">Use the constants table decoder to read number of constants </tspan><tspan y="51.5" x="193.3" style="font-size:12.00pt">and their data</tspan></text></g><g transform="translate(254.355000,444.197000)" id="group8"><g transform="translate(97.876700,0.000000)" id="shape9"><text xml:space="preserve" style="fill:#000000;font-family:Lato,PingFang SC,Mircrosoft YaHei,Arial;font-size:18.00pt"><tspan y="23.1" x="7.1" style="font-size:12.00pt">Key</tspan></text></g><path stroke="#333e48" fill="none" id="shape10" stroke-width="1" d="M.0,.0L237.0,.0L237.0,101.2L.0,101.2L.0,.0z"/><g transform="translate(17.872000,62.981100)" id="group11"><path stroke="#333e48" fill-rule="nonzero" fill="#7d868c" transform="translate(0.000000,6.925850)" id="shape12" stroke-width="1" d="M.0,.0L18.3,.0L18.3,18.1L.0,18.1L.0,.0z"/><g transform="translate(0.000000,-0.000100)" id="group13"><g transform="translate(25.547500,0.000100)" id="shape14"><text xml:space="preserve" style="fill:#000000;font-family:Lato,PingFang SC,Mircrosoft YaHei,Arial;font-size:18.00pt"><tspan y="23.3" x="4.2" style="font-size:12.00pt">VGF Parser API</tspan></text></g></g></g><g transform="translate(17.324000,33.237200)" id="group15"><g transform="translate(0.001000,0.000000)" id="group16"><g transform="translate(0.001000,0.000000)" id="group17"><g transform="translate(26.250600,0.000000)" id="shape18"><text xml:space="preserve" style="fill:#000000;font-family:Lato,PingFang SC,Mircrosoft YaHei,Arial;font-size:18.00pt"><tspan y="21.4" x="4.2" style="font-size:12.00pt">Application Code</tspan></text></g></g></g><path stroke="#333e48" fill-rule="nonzero" fill="#e5eceb" transform="translate(0.447420,8.266950)" id="shape19" stroke-width="1" d="M.0,.0L18.3,.0L18.3,18.1L.0,18.1L.0,.0z"/></g></g></g></svg>
