<?xml version="1.0" encoding="UTF-8"?>
<!-- Do not edit this file with editors other than diagrams.net -->
<!--
 SPDX-FileCopyrightText: Copyright 2023-2025 Arm Limited and/or its affiliates <open-source-office@arm.com>
 SPDX-License-Identifier: Apache-2.0
-->
<svg xmlns:xlink="http://www.w3.org/1999/xlink" width="492" height="676" xmlns="http://www.w3.org/2000/svg" viewBox="0 0 492 676" xmlns:ev="http://www.w3.org/2001/xml-events"><defs/><g transform="translate(5.5,5.5)" id="page1"><rect y="0" width="482" height="666" fill="#ffffff" x="0"/><g transform="translate(8.795000,8.795200)" id="shape1"><path d="M.0,.0L463.6,.0L463.6,71.0L.0,71.0L.0,.0z" stroke-width="1" stroke="#333e48" fill-rule="nonzero" fill="#7d868c"/><text xml:space="preserve" style="fill:#e5eceb;font-family:Lato,PingFang SC,Mircrosoft YaHei,Arial;font-size:18.00pt"><tspan textLength="185.0" y="32.5" style="font-size:12.00pt" x="140.8">Read segment information </tspan><tspan textLength="311.0" y="51.5" style="font-size:12.00pt" x="76.3">for each segment in the model sequence table</tspan></text></g><g transform="translate(8.795000,114.180700)" id="shape2"><path d="M.0,.0L463.6,.0L463.6,71.0L.0,71.0L.0,.0z" stroke-width="1" stroke="#333e48" fill-rule="nonzero" fill="#7d868c"/><text xml:space="preserve" style="fill:#e5eceb;font-family:Lato,PingFang SC,Mircrosoft YaHei,Arial;font-size:18.00pt"><tspan textLength="359.0" y="33.0" style="font-size:12.00pt" x="52.3">Get memory requirements for a binding slot decoder</tspan><tspan textLength="450.0" y="50.0" style="font-family:Courier New,PingFang SC,Mircrosoft YaHei,Arial;font-size:12.00pt" x="6.8">(mlsdk_decoder_binding_slot_decoder_mem_reqs)</tspan></text></g><g transform="translate(8.795000,223.566700)" id="shape3"><path d="M.0,.0L463.6,.0L463.6,71.0L.0,71.0L.0,.0z" stroke-width="1" stroke="#333e48" fill-rule="nonzero" fill="#e5eceb"/><text xml:space="preserve" style="fill:#000000;font-family:Lato,PingFang SC,Mircrosoft YaHei,Arial;font-size:18.00pt"><tspan textLength="286.0" y="32.5" style="font-size:12.00pt" x="90.3">Allocate memory for binding slot decoder </tspan><tspan textLength="291.0" y="51.5" style="font-size:12.00pt" x="86.3">using its memory requirement information</tspan></text></g><g transform="translate(240.618000,79.763700)" id="shape4"><path d="M.0,.0L.0,27.5" stroke-width="1.3333300352096558" stroke="#333e48" fill="none"/><path d="M3.5,27.5L.0,34.4L-3.5,27.5L3.5,27.5" stroke-width="1" stroke-linecap="round" stroke="#333e48" fill="#333e48"/></g><g transform="translate(240.618000,185.149000)" id="shape5"><path d="M.0,.0L.0,31.5" stroke-width="1.3333300352096558" stroke="#333e48" fill="none"/><path d="M3.5,31.5L.0,38.4L-3.5,31.5L3.5,31.5" stroke-width="1" stroke-linecap="round" stroke="#333e48" fill="#333e48"/></g><g transform="translate(240.618000,294.535000)" id="shape6"><path d="M.0,.0L.0,32.4" stroke-width="1.3333300352096558" stroke="#333e48" fill="none"/><path d="M3.5,32.4L.0,39.3L-3.5,32.4L3.5,32.4" stroke-width="1" stroke-linecap="round" stroke="#333e48" fill="#333e48"/></g><g transform="translate(8.796000,333.881700)" id="shape7"><path d="M.0,.0L463.6,.0L463.6,71.0L.0,71.0L.0,.0z" stroke-width="1" stroke="#333e48" fill-rule="nonzero" fill="#7d868c"/><text xml:space="preserve" style="fill:#e5eceb;font-family:Lato,PingFang SC,Mircrosoft YaHei,Arial;font-size:18.00pt"><tspan textLength="411.0" y="42.0" style="font-size:12.00pt" x="26.3">Create binding slot decoder in its allocated memory location</tspan></text></g><g transform="translate(8.796000,444.196700)" id="shape8"><path d="M.0,.0L463.6,.0L463.6,71.0L.0,71.0L.0,.0z" stroke-width="1" stroke="#333e48" fill-rule="nonzero" fill="#7d868c"/><text xml:space="preserve" style="fill:#e5eceb;font-family:Lato,PingFang SC,Mircrosoft YaHei,Arial;font-size:18.00pt"><tspan textLength="443.0" y="32.5" style="font-size:12.00pt" x="11.8">Use the binding slot decoder to read binding slot information for </tspan><tspan textLength="437.0" y="51.5" style="font-size:12.00pt" x="13.3">desirable component of a segment (inputs, outputs, descriptors)</tspan></text></g><g transform="translate(240.619000,404.850000)" id="shape9"><path d="M.0,.0L.0,32.2" stroke-width="1.3333300352096558" stroke="#333e48" fill="none"/><path d="M3.5,32.2L.0,39.1L-3.5,32.2L3.5,32.2" stroke-width="1" stroke-linecap="round" stroke="#333e48" fill="#333e48"/></g><g transform="translate(235.458000,554.512000)" id="group10"><g transform="translate(97.876700,0.000000)" id="shape11"><text xml:space="preserve" style="fill:#000000;font-family:Lato,PingFang SC,Mircrosoft YaHei,Arial;font-size:18.00pt"><tspan textLength="27.0" y="23.1" style="font-size:12.00pt" x="7.1">Key</tspan></text></g><path d="M.0,.0L237.0,.0L237.0,101.2L.0,101.2L.0,.0z" stroke-width="1" stroke="#333e48" fill="none" id="shape12"/><g transform="translate(17.872000,62.981100)" id="group13"><path d="M.0,.0L18.3,.0L18.3,18.1L.0,18.1L.0,.0z" stroke-width="1" stroke="#333e48" fill-rule="nonzero" fill="#7d868c" transform="translate(0.000000,6.925850)" id="shape14"/><g transform="translate(0.000000,-0.000100)" id="group15"><g transform="translate(25.547500,0.000100)" id="shape16"><text xml:space="preserve" style="fill:#000000;font-family:Lato,PingFang SC,Mircrosoft YaHei,Arial;font-size:18.00pt"><tspan textLength="109.0" y="23.5" style="font-size:12.00pt" x="4.2">VGF Parser API</tspan></text></g></g></g><g transform="translate(17.324000,33.237200)" id="group17"><g transform="translate(0.001000,0.000000)" id="group18"><g transform="translate(0.001000,0.000000)" id="group19"><g transform="translate(26.250600,0.000000)" id="shape20"><text xml:space="preserve" style="fill:#000000;font-family:Lato,PingFang SC,Mircrosoft YaHei,Arial;font-size:18.00pt"><tspan textLength="120.0" y="21.4" style="font-size:12.00pt" x="4.2">Application Code</tspan></text></g></g></g><path d="M.0,.0L18.3,.0L18.3,18.1L.0,18.1L.0,.0z" stroke-width="1" stroke="#333e48" fill-rule="nonzero" fill="#e5eceb" transform="translate(0.447420,8.266950)" id="shape21"/></g></g></g></svg>
