<?xml version="1.0" encoding="UTF-8"?>
<!-- Do not edit this file with editors other than diagrams.net -->
<!--
 SPDX-FileCopyrightText: Copyright 2023-2025 Arm Limited and/or its affiliates <open-source-office@arm.com>
 SPDX-License-Identifier: Apache-2.0
-->
<svg xmlns:xlink="http://www.w3.org/1999/xlink" xmlns:ev="http://www.w3.org/2001/xml-events" width="511" xmlns="http://www.w3.org/2000/svg" height="565" viewBox="0 0 511 565"><defs/><g id="page1" transform="translate(5.5,5.5)"><rect width="501" height="555" fill="#ffffff" x="0" y="0"/><g id="shape1" transform="translate(8.795000,8.795200)"><path stroke="#333e48" fill-rule="nonzero" stroke-width="1" fill="#7d868c" d="M.0,.0L482.5,.0L482.5,71.0L.0,71.0L.0,.0z"/><text style="fill:#e5eceb;font-family:Lato,PingFang SC,Mircrosoft YaHei,Arial;font-size:18.00pt" xml:space="preserve"><tspan style="font-size:12.00pt" textLength="373.0" x="54.8" y="33.0">Get memory requirements for constants table decoder</tspan><tspan style="font-family:Courier New,PingFang SC,Mircrosoft YaHei,Arial;font-size:12.00pt" textLength="470.0" x="6.3" y="50.0">(mlsdk_decoder_constant_table_decoder_mem_reqs)</tspan></text></g><g id="shape2" transform="translate(8.795000,114.180700)"><path stroke="#333e48" fill-rule="nonzero" stroke-width="1" fill="#e5eceb" d="M.0,.0L482.5,.0L482.5,71.0L.0,71.0L.0,.0z"/><text style="fill:#000000;font-family:Lato,PingFang SC,Mircrosoft YaHei,Arial;font-size:18.00pt" xml:space="preserve"><tspan style="font-size:12.00pt" textLength="311.0" x="87.3" y="32.5">Allocate memory for constants table decoder </tspan><tspan style="font-size:12.00pt" textLength="291.0" x="95.8" y="51.5">using its memory requirement information</tspan></text></g><g id="shape3" transform="translate(8.795000,223.566700)"><path stroke="#333e48" fill-rule="nonzero" stroke-width="1" fill="#7d868c" d="M.0,.0L482.5,.0L482.5,71.0L.0,71.0L.0,.0z"/><text style="fill:#e5eceb;font-family:Lato,PingFang SC,Mircrosoft YaHei,Arial;font-size:18.00pt" xml:space="preserve"><tspan style="font-size:12.00pt" textLength="218.0" x="133.8" y="32.5">Create constants table decoder </tspan><tspan style="font-size:12.00pt" textLength="218.0" x="132.3" y="51.5">in its allocated memory location</tspan></text></g><g id="shape4" transform="translate(250.067000,79.763700)"><path stroke="#333e48" stroke-width="1.3333300352096558" fill="none" d="M.0,.0L.0,27.5"/><path stroke-linecap="round" stroke="#333e48" stroke-width="1" fill="#333e48" d="M3.5,27.5L.0,34.4L-3.5,27.5L3.5,27.5"/></g><g id="shape5" transform="translate(250.067000,185.149000)"><path stroke="#333e48" stroke-width="1.3333300352096558" fill="none" d="M.0,.0L.0,31.5"/><path stroke-linecap="round" stroke="#333e48" stroke-width="1" fill="#333e48" d="M3.5,31.5L.0,38.4L-3.5,31.5L3.5,31.5"/></g><g id="shape6" transform="translate(250.067000,294.535000)"><path stroke="#333e48" stroke-width="1.3333300352096558" fill="none" d="M.0,.0L.0,32.4"/><path stroke-linecap="round" stroke="#333e48" stroke-width="1" fill="#333e48" d="M3.5,32.4L.0,39.3L-3.5,32.4L3.5,32.4"/></g><g id="shape7" transform="translate(8.796000,333.881700)"><path stroke="#333e48" fill-rule="nonzero" stroke-width="1" fill="#7d868c" d="M.0,.0L482.5,.0L482.5,71.0L.0,71.0L.0,.0z"/><text style="fill:#e5eceb;font-family:Lato,PingFang SC,Mircrosoft YaHei,Arial;font-size:18.00pt" xml:space="preserve"><tspan style="font-size:12.00pt" textLength="421.0" x="32.3" y="32.5">Use the constants table decoder to read number of constants </tspan><tspan style="font-size:12.00pt" textLength="96.0" x="193.3" y="51.5">and their data</tspan></text></g><g id="group8" transform="translate(254.355000,444.197000)"><g id="shape9" transform="translate(97.876700,0.000000)"><text style="fill:#000000;font-family:Lato,PingFang SC,Mircrosoft YaHei,Arial;font-size:18.00pt" xml:space="preserve"><tspan style="font-size:12.00pt" textLength="27.0" x="7.1" y="23.1">Key</tspan></text></g><path stroke="#333e48" stroke-width="1" fill="none" id="shape10" d="M.0,.0L237.0,.0L237.0,101.2L.0,101.2L.0,.0z"/><g id="group11" transform="translate(17.872000,62.981100)"><path stroke="#333e48" fill-rule="nonzero" stroke-width="1" fill="#7d868c" id="shape12" transform="translate(0.000000,6.925850)" d="M.0,.0L18.3,.0L18.3,18.1L.0,18.1L.0,.0z"/><g id="group13" transform="translate(0.000000,-0.000100)"><g id="shape14" transform="translate(25.547500,0.000100)"><text style="fill:#000000;font-family:Lato,PingFang SC,Mircrosoft YaHei,Arial;font-size:18.00pt" xml:space="preserve"><tspan style="font-size:12.00pt" textLength="109.0" x="4.2" y="23.5">VGF Parser API</tspan></text></g></g></g><g id="group15" transform="translate(17.324000,33.237200)"><g id="group16" transform="translate(0.001000,0.000000)"><g id="group17" transform="translate(0.001000,0.000000)"><g id="shape18" transform="translate(26.250600,0.000000)"><text style="fill:#000000;font-family:Lato,PingFang SC,Mircrosoft YaHei,Arial;font-size:18.00pt" xml:space="preserve"><tspan style="font-size:12.00pt" textLength="120.0" x="4.2" y="21.4">Application Code</tspan></text></g></g></g><path stroke="#333e48" fill-rule="nonzero" stroke-width="1" fill="#e5eceb" id="shape19" transform="translate(0.447420,8.266950)" d="M.0,.0L18.3,.0L18.3,18.1L.0,18.1L.0,.0z"/></g></g></g></svg>
