<?xml version="1.0" encoding="UTF-8"?>
<!-- Do not edit this file with editors other than diagrams.net -->
<!--
 SPDX-FileCopyrightText: Copyright 2023-2025 Arm Limited and/or its affiliates <open-source-office@arm.com>
 SPDX-License-Identifier: Apache-2.0
-->
<!DOCTYPE svg PUBLIC "-//W3C//DTD SVG 1.1//EN" "http://www.w3.org/Graphics/SVG/1.1/DTD/svg11.dtd">
<svg xmlns="http://www.w3.org/2000/svg" viewBox="0 0 529 561" xmlns:ev="http://www.w3.org/2001/xml-events" xmlns:xlink="http://www.w3.org/1999/xlink" width="529" height="561"><defs/><g transform="translate(5.5,5.5)" id="page1"><rect width="519" x="0" fill="#ffffff" y="0" height="551"/><g transform="translate(9.324000,8.795200)" id="shape1"><path stroke="#333e48" stroke-width="1" fill="#7d868c" fill-rule="nonzero" d="M.0,.0L499.6,.0L499.6,71.0L.0,71.0L.0,.0z"/><text xml:space="preserve" style="fill:#000000;font-family:Courier,PingFang SC,Mircrosoft YaHei,Arial;font-size:18.00pt"><tspan x="71.3" y="33.0" style="font-family:Lato,PingFang SC,Mircrosoft YaHei,Arial;font-size:12.00pt">Get memory requirements for module table decoder</tspan><tspan x="34.8" y="50.0" style="font-size:12.00pt">(mlsdk_decoder_create_module_table_decoder)</tspan></text></g><g transform="translate(9.324000,114.180700)" id="shape2"><path stroke="#333e48" stroke-width="1" fill="#e5eceb" fill-rule="nonzero" d="M.0,.0L499.6,.0L499.6,71.0L.0,71.0L.0,.0z"/><text xml:space="preserve" style="fill:#000000;font-family:Lato,PingFang SC,Mircrosoft YaHei,Arial;font-size:18.00pt"><tspan x="103.8" y="32.5" style="font-size:12.00pt">Allocate memory for module table decoder </tspan><tspan x="104.3" y="51.5" style="font-size:12.00pt">using its memory requirement information</tspan></text></g><g transform="translate(9.324000,223.566700)" id="shape3"><path stroke="#333e48" stroke-width="1" fill="#7d868c" fill-rule="nonzero" d="M.0,.0L499.6,.0L499.6,71.0L.0,71.0L.0,.0z"/><text xml:space="preserve" style="fill:#000000;font-family:Lato,PingFang SC,Mircrosoft YaHei,Arial;font-size:18.00pt"><tspan x="39.8" y="42.0" style="font-size:12.00pt">Create module table decoder in its allocated memory location</tspan></text></g><g transform="translate(259.099000,79.763700)" id="shape4"><path stroke="#333e48" stroke-width="1.3333300352096558" fill="none" d="M.0,.0L.0,27.5"/><path stroke-linecap="round" stroke="#333e48" stroke-width="1" fill="#333e48" d="M3.5,27.5L.0,34.4L-3.5,27.5L3.5,27.5"/></g><g transform="translate(259.099000,185.149000)" id="shape5"><path stroke="#333e48" stroke-width="1.3333300352096558" fill="none" d="M.0,.0L.0,31.5"/><path stroke-linecap="round" stroke="#333e48" stroke-width="1" fill="#333e48" d="M3.5,31.5L.0,38.4L-3.5,31.5L3.5,31.5"/></g><g transform="translate(259.099000,294.535000)" id="shape6"><path stroke="#333e48" stroke-width="1.3333300352096558" fill="none" d="M.0,.0L.0,32.4"/><path stroke-linecap="round" stroke="#333e48" stroke-width="1" fill="#333e48" d="M3.5,32.4L.0,39.3L-3.5,32.4L3.5,32.4"/></g><g transform="translate(9.324000,333.881700)" id="shape7"><path stroke="#333e48" stroke-width="1" fill="#7d868c" fill-rule="nonzero" d="M.0,.0L499.6,.0L499.6,71.0L.0,71.0L.0,.0z"/><text xml:space="preserve" style="fill:#000000;font-family:Lato,PingFang SC,Mircrosoft YaHei,Arial;font-size:18.00pt"><tspan x="53.3" y="32.5" style="font-size:12.00pt">Use the module table decoder to read number of modules </tspan><tspan x="176.3" y="51.5" style="font-size:12.00pt">and their information</tspan></text></g><g transform="translate(273.252000,440.764000)" id="group8"><g transform="translate(97.876700,0.000000)" id="shape9"><text xml:space="preserve" style="fill:#000000;font-family:Lato,PingFang SC,Mircrosoft YaHei,Arial;font-size:18.00pt"><tspan x="7.1" y="23.1" style="font-size:12.00pt">Key</tspan></text></g><path stroke="#333e48" stroke-width="1" fill="none" id="shape10" d="M.0,.0L237.0,.0L237.0,101.2L.0,101.2L.0,.0z"/><g transform="translate(17.872000,62.981100)" id="group11"><path transform="translate(0.000000,6.925850)" stroke="#333e48" stroke-width="1" fill="#7d868c" fill-rule="nonzero" id="shape12" d="M.0,.0L18.3,.0L18.3,18.1L.0,18.1L.0,.0z"/><g transform="translate(0.000000,-0.000100)" id="group13"><g transform="translate(25.547500,0.000100)" id="shape14"><text xml:space="preserve" style="fill:#000000;font-family:Lato,PingFang SC,Mircrosoft YaHei,Arial;font-size:18.00pt"><tspan x="4.2" y="23.3" style="font-size:12.00pt">VGF Parser API</tspan></text></g></g></g><g transform="translate(17.324000,33.237200)" id="group15"><g transform="translate(0.001000,0.000000)" id="group16"><g transform="translate(0.001000,0.000000)" id="group17"><g transform="translate(26.250600,0.000000)" id="shape18"><text xml:space="preserve" style="fill:#000000;font-family:Lato,PingFang SC,Mircrosoft YaHei,Arial;font-size:18.00pt"><tspan x="4.2" y="21.4" style="font-size:12.00pt">Application Code</tspan></text></g></g></g><path transform="translate(0.447420,8.266950)" stroke="#333e48" stroke-width="1" fill="#e5eceb" fill-rule="nonzero" id="shape19" d="M.0,.0L18.3,.0L18.3,18.1L.0,18.1L.0,.0z"/></g></g></g></svg>
