<?xml version="1.0" encoding="UTF-8"?>
<!-- Do not edit this file with editors other than diagrams.net -->
<!--
 SPDX-FileCopyrightText: Copyright 2023-2025 Arm Limited and/or its affiliates <open-source-office@arm.com>
 SPDX-License-Identifier: Apache-2.0
-->
<svg height="1229" xmlns="http://www.w3.org/2000/svg" xmlns:ev="http://www.w3.org/2001/xml-events" xmlns:xlink="http://www.w3.org/1999/xlink" viewBox="0 0 378 1229" width="378"><defs/><g transform="translate(5.5,5.5)" id="page1"><rect x="0" height="1219" fill="#ffffff" y="0" width="368"/><g transform="translate(9.324000,8.795200)" id="shape1"><path d="M.0,.0L349.7,.0L349.7,71.0L.0,71.0L.0,.0z" stroke-width="1" fill="#e5eceb" fill-rule="nonzero" stroke="#333e48"/><text xml:space="preserve" style="fill:#000000;font-family:Lato,PingFang SC,Mircrosoft YaHei,Arial;font-size:15.00pt"><tspan x="86.9" style="font-size:10.00pt" textLength="176.0" y="40.5">Read VGF file into data stream</tspan></text></g><g transform="translate(9.324000,114.180700)" id="shape2"><path d="M.0,.0L349.7,.0L349.7,71.0L.0,71.0L.0,.0z" stroke-width="1" fill="#7d868c" fill-rule="nonzero" stroke="#333e48"/><text xml:space="preserve" style="fill:#e5eceb;font-family:Lato,PingFang SC,Mircrosoft YaHei,Arial;font-size:15.00pt"><tspan x="42.4" style="font-size:10.00pt" textLength="265.0" y="32.5">Get file header decoder memory requirements</tspan><tspan x="18.9" style="font-family:Courier,PingFang SC,Mircrosoft YaHei,Arial;font-size:10.00pt" textLength="312.0" y="47.5">(mlsdk_decoder_header_decoder_mem_reqs)</tspan></text></g><g transform="translate(9.324000,223.566700)" id="shape3"><path d="M.0,.0L349.7,.0L349.7,71.0L.0,71.0L.0,.0z" stroke-width="1" fill="#e5eceb" fill-rule="nonzero" stroke="#333e48"/><text xml:space="preserve" style="fill:#000000;font-family:Lato,PingFang SC,Mircrosoft YaHei,Arial;font-size:15.00pt"><tspan x="70.4" style="font-size:10.00pt" textLength="212.0" y="32.5">Allocate memory for header decoder </tspan><tspan x="54.4" style="font-size:10.00pt" textLength="241.0" y="48.5">using its memory requirement information</tspan></text></g><g transform="translate(184.190000,79.763700)" id="shape4"><path d="M.0,.0L.0,27.5" stroke-width="1.3333300352096558" fill="none" stroke="#333e48"/><path d="M3.5,27.5L.0,34.4L-3.5,27.5L3.5,27.5" stroke-width="1" stroke-linecap="round" fill="#333e48" stroke="#333e48"/></g><g transform="translate(184.190000,185.149000)" id="shape5"><path d="M.0,.0L.0,31.5" stroke-width="1.3333300352096558" fill="none" stroke="#333e48"/><path d="M3.5,31.5L.0,38.4L-3.5,31.5L3.5,31.5" stroke-width="1" stroke-linecap="round" fill="#333e48" stroke="#333e48"/></g><g transform="translate(184.190000,294.535000)" id="shape6"><path d="M.0,.0L.0,32.4" stroke-width="1.3333300352096558" fill="none" stroke="#333e48"/><path d="M3.5,32.4L.0,39.3L-3.5,32.4L3.5,32.4" stroke-width="1" stroke-linecap="round" fill="#333e48" stroke="#333e48"/></g><g transform="translate(9.324000,333.881700)" id="shape7"><path d="M.0,.0L349.7,.0L349.7,71.0L.0,71.0L.0,.0z" stroke-width="1" fill="#7d868c" fill-rule="nonzero" stroke="#333e48"/><text xml:space="preserve" style="fill:#e5eceb;font-family:Lato,PingFang SC,Mircrosoft YaHei,Arial;font-size:15.00pt"><tspan x="14.4" style="font-size:10.00pt" textLength="324.0" y="24.5">Create header decoder in the allocated memory location </tspan><tspan x="76.9" style="font-size:10.00pt" textLength="196.0" y="40.5">and read header from data stream</tspan><tspan x="26.9" style="font-family:Courier,PingFang SC,Mircrosoft YaHei,Arial;font-size:10.00pt" textLength="296.0" y="55.5">(mlsdk_decoder_create_header_decoder)</tspan></text></g><g transform="translate(9.324000,444.196700)" id="shape8"><path d="M.0,.0L349.7,.0L349.7,71.0L.0,71.0L.0,.0z" stroke-width="1" fill="#7d868c" fill-rule="nonzero" stroke="#333e48"/><text xml:space="preserve" style="fill:#e5eceb;font-family:Lato,PingFang SC,Mircrosoft YaHei,Arial;font-size:15.00pt"><tspan x="109.4" style="font-size:10.00pt" textLength="131.0" y="32.5">Check if header is valid</tspan><tspan x="50.9" style="font-family:Courier,PingFang SC,Mircrosoft YaHei,Arial;font-size:10.00pt" textLength="248.0" y="47.5">(mlsdk_decoder_is_header_valid)</tspan></text></g><g transform="translate(9.324000,995.775700)" id="shape9"><path d="M.0,.0L349.7,.0L349.7,71.0L.0,71.0L.0,.0z" stroke-width="1" fill="#7d868c" fill-rule="nonzero" stroke="#333e48"/><text xml:space="preserve" style="fill:#e5eceb;font-family:Lato,PingFang SC,Mircrosoft YaHei,Arial;font-size:15.00pt"><tspan x="26.4" style="font-size:10.00pt" textLength="300.0" y="32.5">Create the decoder of each section in their allocated </tspan><tspan x="19.4" style="font-size:10.00pt" textLength="311.0" y="48.5">memory location and read their data from data stream</tspan></text></g><g transform="translate(9.324000,554.512700)" id="shape10"><path d="M.0,.0L349.7,.0L349.7,71.0L.0,71.0L.0,.0z" stroke-width="1" fill="#7d868c" fill-rule="nonzero" stroke="#333e48"/><text xml:space="preserve" style="fill:#e5eceb;font-family:Lato,PingFang SC,Mircrosoft YaHei,Arial;font-size:15.00pt"><tspan x="88.4" style="font-size:10.00pt" textLength="176.0" y="24.5">Check if VGF file is compatible </tspan><tspan x="8.4" style="font-size:10.00pt" textLength="333.0" y="40.5">with the current version of the parser API, by using header</tspan><tspan x="30.9" style="font-family:Courier,PingFang SC,Mircrosoft YaHei,Arial;font-size:10.00pt" textLength="288.0" y="55.5">(mlsdk_decoder_is_header_compatible)</tspan></text></g><g transform="translate(9.324000,664.827700)" id="shape11"><path d="M.0,.0L349.7,.0L349.7,71.0L.0,71.0L.0,.0z" stroke-width="1" fill="#7d868c" fill-rule="nonzero" stroke="#333e48"/><text xml:space="preserve" style="fill:#e5eceb;font-family:Lato,PingFang SC,Mircrosoft YaHei,Arial;font-size:15.00pt"><tspan x="25.4" style="font-size:10.00pt" textLength="299.0" y="32.5">Get VGF file sections size and offset by using header</tspan><tspan x="18.9" style="font-family:Courier,PingFang SC,Mircrosoft YaHei,Arial;font-size:10.00pt" textLength="312.0" y="47.5">(mlsdk_decoder_get_header_section_info)</tspan></text></g><g transform="translate(9.324000,775.143700)" id="shape12"><path d="M.0,.0L349.7,.0L349.7,71.0L.0,71.0L.0,.0z" stroke-width="1" fill="#7d868c" fill-rule="nonzero" stroke="#333e48"/><text xml:space="preserve" style="fill:#e5eceb;font-family:Lato,PingFang SC,Mircrosoft YaHei,Arial;font-size:15.00pt"><tspan x="12.4" style="font-size:10.00pt" textLength="325.0" y="40.5">Get memory requirement for the decoder of each section</tspan></text></g><g transform="translate(9.324000,885.458700)" id="shape13"><path d="M.0,.0L349.7,.0L349.7,71.0L.0,71.0L.0,.0z" stroke-width="1" fill="#e5eceb" fill-rule="nonzero" stroke="#333e48"/><text xml:space="preserve" style="fill:#000000;font-family:Lato,PingFang SC,Mircrosoft YaHei,Arial;font-size:15.00pt"><tspan x="36.9" style="font-size:10.00pt" textLength="279.0" y="32.5">Allocate memory for the decoder of each section </tspan><tspan x="47.9" style="font-size:10.00pt" textLength="254.0" y="48.5">using their memory requirement information</tspan></text></g><g transform="translate(184.190000,404.850000)" id="shape14"><path d="M.0,.0L.0,32.4" stroke-width="1.3333300352096558" fill="none" stroke="#333e48"/><path d="M3.5,32.4L.0,39.3L-3.5,32.4L3.5,32.4" stroke-width="1" stroke-linecap="round" fill="#333e48" stroke="#333e48"/></g><g transform="translate(184.190000,515.165000)" id="shape15"><path d="M.0,.0L.0,32.4" stroke-width="1.3333300352096558" fill="none" stroke="#333e48"/><path d="M3.5,32.4L.0,39.3L-3.5,32.4L3.5,32.4" stroke-width="1" stroke-linecap="round" fill="#333e48" stroke="#333e48"/></g><g transform="translate(184.190000,625.481000)" id="shape16"><path d="M.0,.0L.0,32.4" stroke-width="1.3333300352096558" fill="none" stroke="#333e48"/><path d="M3.5,32.4L.0,39.3L-3.5,32.4L3.5,32.4" stroke-width="1" stroke-linecap="round" fill="#333e48" stroke="#333e48"/></g><g transform="translate(184.190000,735.796000)" id="shape17"><path d="M.0,.0L.0,32.4" stroke-width="1.3333300352096558" fill="none" stroke="#333e48"/><path d="M3.5,32.4L.0,39.3L-3.5,32.4L3.5,32.4" stroke-width="1" stroke-linecap="round" fill="#333e48" stroke="#333e48"/></g><g transform="translate(184.190000,846.112000)" id="shape18"><path d="M.0,.0L.0,32.4" stroke-width="1.3333300352096558" fill="none" stroke="#333e48"/><path d="M3.5,32.4L.0,39.3L-3.5,32.4L3.5,32.4" stroke-width="1" stroke-linecap="round" fill="#333e48" stroke="#333e48"/></g><g transform="translate(184.190000,956.427000)" id="shape19"><path d="M.0,.0L.0,32.4" stroke-width="1.3333300352096558" fill="none" stroke="#333e48"/><path d="M3.5,32.4L.0,39.3L-3.5,32.4L3.5,32.4" stroke-width="1" stroke-linecap="round" fill="#333e48" stroke="#333e48"/></g><g transform="translate(181.737800,1164.069200)" id="group20"><g transform="translate(0.000200,-0.000100)" id="group21"><g transform="translate(23.145400,1.000000)" id="shape22"><text xml:space="preserve" style="fill:#000000;font-family:Lato,PingFang SC,Mircrosoft YaHei,Arial;font-size:15.00pt"><tspan x="4.4" style="font-size:10.00pt" textLength="91.0" y="22.0">VGF Parser API</tspan></text></g></g></g><g transform="translate(188.189400,1135.329700)" id="group23"><g transform="translate(0.000300,0.000000)" id="group24"><g transform="translate(0.000100,0.000000)" id="group25"><g transform="translate(16.161200,0.000000)" id="shape26"><text xml:space="preserve" style="fill:#000000;font-family:Lato,PingFang SC,Mircrosoft YaHei,Arial;font-size:15.00pt"><tspan x="4.2" style="font-size:10.00pt" textLength="97.0" y="19.9">Application Code</tspan></text></g></g></g></g><g transform="translate(170.078800,1106.095000)" id="group27"><g transform="translate(73.872900,0.000000)" id="shape28"><text xml:space="preserve" style="fill:#000000;font-family:Lato,PingFang SC,Mircrosoft YaHei,Arial;font-size:15.00pt"><tspan x="9.1" style="font-size:10.00pt" textLength="23.0" y="21.6">Key</tspan></text></g><path d="M.0,.0L189.0,.0L189.0,101.2L.0,101.2L.0,.0z" stroke-width="1" transform="translate(0.000000,3.000000)" id="shape29" fill="none" stroke="#333e48"/></g><path d="M.0,.0L18.3,.0L18.3,18.1L.0,18.1L.0,.0z" stroke-width="1" transform="translate(177.737650,1142.179150)" id="shape30" fill="#e5eceb" fill-rule="nonzero" stroke="#333e48"/><path d="M.0,.0L18.3,.0L18.3,18.1L.0,18.1L.0,.0z" stroke-width="1" transform="translate(177.737650,1171.749150)" id="shape31" fill="#7d868c" fill-rule="nonzero" stroke="#333e48"/></g></svg>
