<?xml version="1.0" encoding="UTF-8"?>
<!-- Do not edit this file with editors other than diagrams.net -->
<!--
 SPDX-FileCopyrightText: Copyright 2023-2025 Arm Limited and/or its affiliates <open-source-office@arm.com>
 SPDX-License-Identifier: Apache-2.0
-->
<svg viewBox="0 0 378 1229" xmlns:xlink="http://www.w3.org/1999/xlink" xmlns:ev="http://www.w3.org/2001/xml-events" width="378" xmlns="http://www.w3.org/2000/svg" height="1229"><defs/><g id="page1" transform="translate(5.5,5.5)"><rect width="368" height="1219" y="0" fill="#ffffff" x="0"/><g id="shape1" transform="translate(9.324000,8.795200)"><path stroke-width="1" d="M.0,.0L349.7,.0L349.7,71.0L.0,71.0L.0,.0z" stroke="#333e48" fill-rule="nonzero" fill="#e5eceb"/><text style="fill:#000000;font-family:Lato,PingFang SC,Mircrosoft YaHei,Arial;font-size:15.00pt" xml:space="preserve"><tspan style="font-size:10.00pt" y="40.5" x="86.9">Read VGF file into data stream</tspan></text></g><g id="shape2" transform="translate(9.324000,114.180700)"><path stroke-width="1" d="M.0,.0L349.7,.0L349.7,71.0L.0,71.0L.0,.0z" stroke="#333e48" fill-rule="nonzero" fill="#7d868c"/><text style="fill:#000000;font-family:Courier,PingFang SC,Mircrosoft YaHei,Arial;font-size:15.00pt" xml:space="preserve"><tspan style="font-family:Lato,PingFang SC,Mircrosoft YaHei,Arial;font-size:10.00pt" y="32.5" x="42.4">Get file header decoder memory requirements</tspan><tspan style="font-size:10.00pt" y="47.5" x="18.9">(mlsdk_decoder_header_decoder_mem_reqs)</tspan></text></g><g id="shape3" transform="translate(9.324000,223.566700)"><path stroke-width="1" d="M.0,.0L349.7,.0L349.7,71.0L.0,71.0L.0,.0z" stroke="#333e48" fill-rule="nonzero" fill="#e5eceb"/><text style="fill:#000000;font-family:Lato,PingFang SC,Mircrosoft YaHei,Arial;font-size:15.00pt" xml:space="preserve"><tspan style="font-size:10.00pt" y="32.5" x="70.4">Allocate memory for header decoder </tspan><tspan style="font-size:10.00pt" y="48.5" x="54.4">using its memory requirement information</tspan></text></g><g id="shape4" transform="translate(184.189559,79.763700)"><path stroke-width="1.3333300352096558" d="M.0,.0L.0,27.5" stroke="#333e48" fill="none"/><path stroke-linecap="round" stroke-width="1" d="M3.5,27.5L.0,34.4L-3.5,27.5L3.5,27.5" stroke="#333e48" fill="#333e48"/></g><g id="shape5" transform="translate(184.189559,185.149200)"><path stroke-width="1.3333300352096558" d="M.0,.0L.0,31.5" stroke="#333e48" fill="none"/><path stroke-linecap="round" stroke-width="1" d="M3.5,31.5L.0,38.4L-3.5,31.5L3.5,31.5" stroke="#333e48" fill="#333e48"/></g><g id="shape6" transform="translate(184.189559,294.535200)"><path stroke-width="1.3333300352096558" d="M.0,.0L.0,32.4" stroke="#333e48" fill="none"/><path stroke-linecap="round" stroke-width="1" d="M3.5,32.4L.0,39.3L-3.5,32.4L3.5,32.4" stroke="#333e48" fill="#333e48"/></g><g id="shape7" transform="translate(9.324000,333.881700)"><path stroke-width="1" d="M.0,.0L349.7,.0L349.7,71.0L.0,71.0L.0,.0z" stroke="#333e48" fill-rule="nonzero" fill="#7d868c"/><text style="fill:#000000;font-family:Courier,PingFang SC,Mircrosoft YaHei,Arial;font-size:15.00pt" xml:space="preserve"><tspan style="font-family:Lato,PingFang SC,Mircrosoft YaHei,Arial;font-size:10.00pt" y="24.5" x="14.4">Create header decoder in the allocated memory location </tspan><tspan style="font-family:Lato,PingFang SC,Mircrosoft YaHei,Arial;font-size:10.00pt" y="40.5" x="76.9">and read header from data stream</tspan><tspan style="font-size:10.00pt" y="55.5" x="26.9">(mlsdk_decoder_create_header_decoder)</tspan></text></g><g id="shape8" transform="translate(9.324000,444.196700)"><path stroke-width="1" d="M.0,.0L349.7,.0L349.7,71.0L.0,71.0L.0,.0z" stroke="#333e48" fill-rule="nonzero" fill="#7d868c"/><text style="fill:#000000;font-family:Courier,PingFang SC,Mircrosoft YaHei,Arial;font-size:15.00pt" xml:space="preserve"><tspan style="font-family:Lato,PingFang SC,Mircrosoft YaHei,Arial;font-size:10.00pt" y="32.5" x="109.4">Check if header is valid</tspan><tspan style="font-size:10.00pt" y="47.5" x="50.9">(mlsdk_decoder_is_header_valid)</tspan></text></g><g id="shape9" transform="translate(9.324000,995.775700)"><path stroke-width="1" d="M.0,.0L349.7,.0L349.7,71.0L.0,71.0L.0,.0z" stroke="#333e48" fill-rule="nonzero" fill="#7d868c"/><text style="fill:#000000;font-family:Lato,PingFang SC,Mircrosoft YaHei,Arial;font-size:15.00pt" xml:space="preserve"><tspan style="font-size:10.00pt" y="32.5" x="26.4">Create the decoder of each section in their allocated </tspan><tspan style="font-size:10.00pt" y="48.5" x="19.4">memory location and read their data from data stream</tspan></text></g><g id="shape10" transform="translate(9.324000,554.512700)"><path stroke-width="1" d="M.0,.0L349.7,.0L349.7,71.0L.0,71.0L.0,.0z" stroke="#333e48" fill-rule="nonzero" fill="#7d868c"/><text style="fill:#000000;font-family:Courier,PingFang SC,Mircrosoft YaHei,Arial;font-size:15.00pt" xml:space="preserve"><tspan style="font-family:Lato,PingFang SC,Mircrosoft YaHei,Arial;font-size:10.00pt" y="24.5" x="88.4">Check if VGF file is compatible </tspan><tspan style="font-family:Lato,PingFang SC,Mircrosoft YaHei,Arial;font-size:10.00pt" y="40.5" x="8.4">with the current version of the parser API, by using header</tspan><tspan style="font-size:10.00pt" y="55.5" x="30.9">(mlsdk_decoder_is_header_compatible)</tspan></text></g><g id="shape11" transform="translate(9.324000,664.827700)"><path stroke-width="1" d="M.0,.0L349.7,.0L349.7,71.0L.0,71.0L.0,.0z" stroke="#333e48" fill-rule="nonzero" fill="#7d868c"/><text style="fill:#000000;font-family:Courier,PingFang SC,Mircrosoft YaHei,Arial;font-size:15.00pt" xml:space="preserve"><tspan style="font-family:Lato,PingFang SC,Mircrosoft YaHei,Arial;font-size:10.00pt" y="32.5" x="25.4">Get VGF file sections size and offset by using header</tspan><tspan style="font-size:10.00pt" y="47.5" x="18.9">(mlsdk_decoder_get_header_section_info)</tspan></text></g><g id="shape12" transform="translate(9.324000,775.143700)"><path stroke-width="1" d="M.0,.0L349.7,.0L349.7,71.0L.0,71.0L.0,.0z" stroke="#333e48" fill-rule="nonzero" fill="#7d868c"/><text style="fill:#000000;font-family:Lato,PingFang SC,Mircrosoft YaHei,Arial;font-size:15.00pt" xml:space="preserve"><tspan style="font-size:10.00pt" y="40.5" x="12.4">Get memory requirement for the decoder of each section</tspan></text></g><g id="shape13" transform="translate(9.324000,885.458700)"><path stroke-width="1" d="M.0,.0L349.7,.0L349.7,71.0L.0,71.0L.0,.0z" stroke="#333e48" fill-rule="nonzero" fill="#e5eceb"/><text style="fill:#000000;font-family:Lato,PingFang SC,Mircrosoft YaHei,Arial;font-size:15.00pt" xml:space="preserve"><tspan style="font-size:10.00pt" y="32.5" x="36.9">Allocate memory for the decoder of each section </tspan><tspan style="font-size:10.00pt" y="48.5" x="47.9">using their memory requirement information</tspan></text></g><g id="shape14" transform="translate(184.189559,404.850200)"><path stroke-width="1.3333300352096558" d="M.0,.0L.0,32.4" stroke="#333e48" fill="none"/><path stroke-linecap="round" stroke-width="1" d="M3.5,32.4L.0,39.3L-3.5,32.4L3.5,32.4" stroke="#333e48" fill="#333e48"/></g><g id="shape15" transform="translate(184.189559,515.165200)"><path stroke-width="1.3333300352096558" d="M.0,.0L.0,32.4" stroke="#333e48" fill="none"/><path stroke-linecap="round" stroke-width="1" d="M3.5,32.4L.0,39.3L-3.5,32.4L3.5,32.4" stroke="#333e48" fill="#333e48"/></g><g id="shape16" transform="translate(184.189559,625.481200)"><path stroke-width="1.3333300352096558" d="M.0,.0L.0,32.4" stroke="#333e48" fill="none"/><path stroke-linecap="round" stroke-width="1" d="M3.5,32.4L.0,39.3L-3.5,32.4L3.5,32.4" stroke="#333e48" fill="#333e48"/></g><g id="shape17" transform="translate(184.189559,735.796200)"><path stroke-width="1.3333300352096558" d="M.0,.0L.0,32.4" stroke="#333e48" fill="none"/><path stroke-linecap="round" stroke-width="1" d="M3.5,32.4L.0,39.3L-3.5,32.4L3.5,32.4" stroke="#333e48" fill="#333e48"/></g><g id="shape18" transform="translate(184.189559,846.112200)"><path stroke-width="1.3333300352096558" d="M.0,.0L.0,32.4" stroke="#333e48" fill="none"/><path stroke-linecap="round" stroke-width="1" d="M3.5,32.4L.0,39.3L-3.5,32.4L3.5,32.4" stroke="#333e48" fill="#333e48"/></g><g id="shape19" transform="translate(184.189559,956.427200)"><path stroke-width="1.3333300352096558" d="M.0,.0L.0,32.4" stroke="#333e48" fill="none"/><path stroke-linecap="round" stroke-width="1" d="M3.5,32.4L.0,39.3L-3.5,32.4L3.5,32.4" stroke="#333e48" fill="#333e48"/></g><g id="group20" transform="translate(181.737894,1164.073750)"><g id="group21" transform="translate(0.000172,-0.000101)"><g id="shape22" transform="translate(23.145383,1.000000)"><text style="fill:#000000;font-family:Lato,PingFang SC,Mircrosoft YaHei,Arial;font-size:15.00pt" xml:space="preserve"><tspan style="font-size:10.00pt" y="21.8" x="4.4">VGF Parser API</tspan></text></g></g></g><g id="group23" transform="translate(188.189894,1135.329900)"><g id="group24" transform="translate(0.000337,0.000000)"><g id="group25" transform="translate(0.000135,0.000000)"><g id="shape26" transform="translate(16.161189,0.000000)"><text style="fill:#000000;font-family:Lato,PingFang SC,Mircrosoft YaHei,Arial;font-size:15.00pt" xml:space="preserve"><tspan style="font-size:10.00pt" y="19.9" x="4.2">Application Code</tspan></text></g></g></g></g><g id="group27" transform="translate(170.078740,1106.092700)"><g id="shape28" transform="translate(73.872889,0.000000)"><text style="fill:#000000;font-family:Lato,PingFang SC,Mircrosoft YaHei,Arial;font-size:15.00pt" xml:space="preserve"><tspan style="font-size:10.00pt" y="21.6" x="9.1">Key</tspan></text></g><path stroke-width="1" d="M.0,.0L189.0,.0L189.0,101.2L.0,101.2L.0,.0z" stroke="#333e48" id="shape29" fill="none" transform="translate(0.000000,3.000000)"/></g><path stroke-width="1" d="M.0,.0L18.3,.0L18.3,18.1L.0,18.1L.0,.0z" stroke="#333e48" id="shape30" fill-rule="nonzero" fill="#e5eceb" transform="translate(177.737894,1142.179350)"/><path stroke-width="1" d="M.0,.0L18.3,.0L18.3,18.1L.0,18.1L.0,.0z" stroke="#333e48" id="shape31" fill-rule="nonzero" fill="#7d868c" transform="translate(177.737894,1171.753750)"/></g></svg>
