<?xml version="1.0" encoding="UTF-8"?>
<!-- Do not edit this file with editors other than diagrams.net -->
<!--
 SPDX-FileCopyrightText: Copyright 2023-2025 Arm Limited and/or its affiliates <open-source-office@arm.com>
 SPDX-License-Identifier: Apache-2.0
-->
<!DOCTYPE svg PUBLIC "-//W3C//DTD SVG 1.1//EN" "http://www.w3.org/Graphics/SVG/1.1/DTD/svg11.dtd">
<svg xmlns:ev="http://www.w3.org/2001/xml-events" height="676" xmlns:xlink="http://www.w3.org/1999/xlink" width="492" viewBox="0 0 492 676" xmlns="http://www.w3.org/2000/svg"><defs/><g transform="translate(5.5,5.5)" id="page1"><rect x="0" height="666" y="0" width="482" fill="#ffffff"/><g transform="translate(8.795000,8.795200)" id="shape1"><path stroke-width="1" d="M.0,.0L463.6,.0L463.6,71.0L.0,71.0L.0,.0z" stroke="#333e48" fill="#7d868c" fill-rule="nonzero"/><text xml:space="preserve" style="fill:#000000;font-family:Lato,PingFang SC,Mircrosoft YaHei,Arial;font-size:18.00pt"><tspan x="140.8" y="32.5" style="font-size:12.00pt">Read segment information </tspan><tspan x="76.3" y="51.5" style="font-size:12.00pt">for each segment in the model sequence table</tspan></text></g><g transform="translate(8.795000,114.180700)" id="shape2"><path stroke-width="1" d="M.0,.0L463.6,.0L463.6,71.0L.0,71.0L.0,.0z" stroke="#333e48" fill="#7d868c" fill-rule="nonzero"/><text xml:space="preserve" style="fill:#000000;font-family:Courier New,PingFang SC,Mircrosoft YaHei,Arial;font-size:18.00pt"><tspan x="52.3" y="33.0" style="font-family:Lato,PingFang SC,Mircrosoft YaHei,Arial;font-size:12.00pt">Get memory requirements for a binding slot decoder</tspan><tspan x="6.8" y="50.0" style="font-size:12.00pt">(mlsdk_decoder_binding_slot_decoder_mem_reqs)</tspan></text></g><g transform="translate(8.795000,223.566700)" id="shape3"><path stroke-width="1" d="M.0,.0L463.6,.0L463.6,71.0L.0,71.0L.0,.0z" stroke="#333e48" fill="#e5eceb" fill-rule="nonzero"/><text xml:space="preserve" style="fill:#000000;font-family:Lato,PingFang SC,Mircrosoft YaHei,Arial;font-size:18.00pt"><tspan x="90.3" y="32.5" style="font-size:12.00pt">Allocate memory for binding slot decoder </tspan><tspan x="86.3" y="51.5" style="font-size:12.00pt">using its memory requirement information</tspan></text></g><g transform="translate(240.618000,79.763700)" id="shape4"><path stroke-width="1.3333300352096558" d="M.0,.0L.0,27.5" stroke="#333e48" fill="none"/><path stroke-width="1" stroke-linecap="round" d="M3.5,27.5L.0,34.4L-3.5,27.5L3.5,27.5" stroke="#333e48" fill="#333e48"/></g><g transform="translate(240.618000,185.149000)" id="shape5"><path stroke-width="1.3333300352096558" d="M.0,.0L.0,31.5" stroke="#333e48" fill="none"/><path stroke-width="1" stroke-linecap="round" d="M3.5,31.5L.0,38.4L-3.5,31.5L3.5,31.5" stroke="#333e48" fill="#333e48"/></g><g transform="translate(240.618000,294.535000)" id="shape6"><path stroke-width="1.3333300352096558" d="M.0,.0L.0,32.4" stroke="#333e48" fill="none"/><path stroke-width="1" stroke-linecap="round" d="M3.5,32.4L.0,39.3L-3.5,32.4L3.5,32.4" stroke="#333e48" fill="#333e48"/></g><g transform="translate(8.796000,333.881700)" id="shape7"><path stroke-width="1" d="M.0,.0L463.6,.0L463.6,71.0L.0,71.0L.0,.0z" stroke="#333e48" fill="#7d868c" fill-rule="nonzero"/><text xml:space="preserve" style="fill:#000000;font-family:Lato,PingFang SC,Mircrosoft YaHei,Arial;font-size:18.00pt"><tspan x="26.3" y="42.0" style="font-size:12.00pt">Create binding slot decoder in its allocated memory location</tspan></text></g><g transform="translate(8.796000,444.196700)" id="shape8"><path stroke-width="1" d="M.0,.0L463.6,.0L463.6,71.0L.0,71.0L.0,.0z" stroke="#333e48" fill="#7d868c" fill-rule="nonzero"/><text xml:space="preserve" style="fill:#000000;font-family:Lato,PingFang SC,Mircrosoft YaHei,Arial;font-size:18.00pt"><tspan x="11.8" y="32.5" style="font-size:12.00pt">Use the binding slot decoder to read binding slot information for </tspan><tspan x="13.3" y="51.5" style="font-size:12.00pt">desirable component of a segment (inputs, outputs, descriptors)</tspan></text></g><g transform="translate(240.619000,404.850000)" id="shape9"><path stroke-width="1.3333300352096558" d="M.0,.0L.0,32.2" stroke="#333e48" fill="none"/><path stroke-width="1" stroke-linecap="round" d="M3.5,32.2L.0,39.1L-3.5,32.2L3.5,32.2" stroke="#333e48" fill="#333e48"/></g><g transform="translate(235.458000,554.512000)" id="group10"><g transform="translate(97.876700,0.000000)" id="shape11"><text xml:space="preserve" style="fill:#000000;font-family:Lato,PingFang SC,Mircrosoft YaHei,Arial;font-size:18.00pt"><tspan x="7.1" y="23.1" style="font-size:12.00pt">Key</tspan></text></g><path stroke-width="1" id="shape12" d="M.0,.0L237.0,.0L237.0,101.2L.0,101.2L.0,.0z" stroke="#333e48" fill="none"/><g transform="translate(17.872000,62.981100)" id="group13"><path stroke-width="1" transform="translate(0.000000,6.925850)" id="shape14" d="M.0,.0L18.3,.0L18.3,18.1L.0,18.1L.0,.0z" stroke="#333e48" fill="#7d868c" fill-rule="nonzero"/><g transform="translate(0.000000,-0.000100)" id="group15"><g transform="translate(25.547500,0.000100)" id="shape16"><text xml:space="preserve" style="fill:#000000;font-family:Lato,PingFang SC,Mircrosoft YaHei,Arial;font-size:18.00pt"><tspan x="4.2" y="23.3" style="font-size:12.00pt">VGF Parser API</tspan></text></g></g></g><g transform="translate(17.324000,33.237200)" id="group17"><g transform="translate(0.001000,0.000000)" id="group18"><g transform="translate(0.001000,0.000000)" id="group19"><g transform="translate(26.250600,0.000000)" id="shape20"><text xml:space="preserve" style="fill:#000000;font-family:Lato,PingFang SC,Mircrosoft YaHei,Arial;font-size:18.00pt"><tspan x="4.2" y="21.4" style="font-size:12.00pt">Application Code</tspan></text></g></g></g><path stroke-width="1" transform="translate(0.447420,8.266950)" id="shape21" d="M.0,.0L18.3,.0L18.3,18.1L.0,18.1L.0,.0z" stroke="#333e48" fill="#e5eceb" fill-rule="nonzero"/></g></g></g></svg>
